<svg xmlns="http://www.w3.org/2000/svg" xmlns:xlink="http://www.w3.org/1999/xlink" width="300" zoomAndPan="magnify" viewBox="0 0 224.87999 30.000001" height="40" preserveAspectRatio="xMidYMid meet" version="1.0"><defs><g/><clipPath id="2d2d049b51"><path d="M 114 0.25 L 177 0.25 L 177 22 L 114 22 Z M 114 0.25 " clip-rule="nonzero"/></clipPath><clipPath id="ddc8ae348f"><rect x="0" width="63" y="0" height="22"/></clipPath><clipPath id="2f1a551dd8"><path d="M 178 0.25 L 212.941406 0.25 L 212.941406 22.316406 L 178 22.316406 Z M 178 0.25 " clip-rule="nonzero"/></clipPath><clipPath id="3a14ad54fb"><path d="M 23 3 L 34.941406 3 L 34.941406 18 L 23 18 Z M 23 3 " clip-rule="nonzero"/></clipPath><clipPath id="cbbd4cc613"><rect x="0" width="35" y="0" height="23"/></clipPath><clipPath id="3adafdf042"><path d="M 100.484375 4 L 114.914062 4 L 114.914062 18 L 100.484375 18 Z M 100.484375 4 " clip-rule="nonzero"/></clipPath><clipPath id="967a8ed2ce"><rect x="0" width="213" y="0" height="23"/></clipPath></defs><g transform="matrix(1, 0, 0, 1, 5, 3)"><g clip-path="url(#967a8ed2ce)"><g clip-path="url(#2d2d049b51)"><g transform="matrix(1, 0, 0, 1, 114, 0.000000000000005773)"><g clip-path="url(#ddc8ae348f)"><g fill="#1e2022" fill-opacity="1"><g transform="translate(0.791339, 17.312462)"><g><path d="M 8.050781 -9.046875 C 7.828125 -9.203125 7.578125 -9.339844 7.304688 -9.460938 C 7.027344 -9.582031 6.742188 -9.6875 6.441406 -9.769531 C 6.140625 -9.855469 5.832031 -9.921875 5.515625 -9.96875 C 5.195312 -10.015625 4.882812 -10.039062 4.570312 -10.039062 C 4.09375 -10.039062 3.636719 -9.984375 3.191406 -9.878906 C 2.75 -9.773438 2.359375 -9.605469 2.019531 -9.371094 C 1.675781 -9.140625 1.40625 -8.847656 1.203125 -8.488281 C 1 -8.128906 0.898438 -7.695312 0.898438 -7.191406 C 0.898438 -6.742188 0.972656 -6.359375 1.117188 -6.046875 C 1.265625 -5.738281 1.460938 -5.472656 1.707031 -5.261719 C 1.957031 -5.050781 2.234375 -4.875 2.546875 -4.738281 C 2.859375 -4.601562 3.179688 -4.480469 3.507812 -4.371094 C 3.835938 -4.265625 4.152344 -4.167969 4.464844 -4.074219 C 4.777344 -3.980469 5.058594 -3.871094 5.304688 -3.75 C 5.550781 -3.628906 5.75 -3.480469 5.898438 -3.308594 C 6.046875 -3.136719 6.125 -2.921875 6.125 -2.660156 C 6.125 -2.464844 6.082031 -2.296875 5.996094 -2.152344 C 5.914062 -2.011719 5.796875 -1.894531 5.652344 -1.800781 C 5.503906 -1.710938 5.332031 -1.644531 5.136719 -1.601562 C 4.9375 -1.558594 4.726562 -1.535156 4.496094 -1.535156 C 4.226562 -1.535156 3.941406 -1.5625 3.636719 -1.621094 C 3.335938 -1.675781 3.035156 -1.757812 2.742188 -1.863281 C 2.449219 -1.96875 2.167969 -2.097656 1.894531 -2.25 C 1.625 -2.40625 1.378906 -2.578125 1.160156 -2.773438 L 0.394531 -1.3125 C 0.644531 -1.085938 0.925781 -0.886719 1.234375 -0.714844 C 1.546875 -0.542969 1.878906 -0.398438 2.222656 -0.28125 C 2.570312 -0.164062 2.929688 -0.0742188 3.300781 -0.015625 C 3.671875 0.046875 4.039062 0.0742188 4.402344 0.0742188 C 4.898438 0.0742188 5.382812 0.015625 5.84375 -0.0976562 C 6.304688 -0.214844 6.710938 -0.390625 7.066406 -0.628906 C 7.417969 -0.863281 7.699219 -1.167969 7.90625 -1.535156 C 8.117188 -1.902344 8.222656 -2.339844 8.222656 -2.847656 C 8.222656 -3.300781 8.144531 -3.6875 7.996094 -4.007812 C 7.847656 -4.324219 7.648438 -4.597656 7.402344 -4.816406 C 7.15625 -5.039062 6.875 -5.222656 6.558594 -5.367188 C 6.242188 -5.507812 5.921875 -5.636719 5.589844 -5.746094 C 5.257812 -5.855469 4.933594 -5.953125 4.617188 -6.042969 C 4.296875 -6.132812 4.015625 -6.234375 3.769531 -6.347656 C 3.523438 -6.460938 3.324219 -6.59375 3.167969 -6.75 C 3.015625 -6.90625 2.941406 -7.105469 2.941406 -7.339844 C 2.941406 -7.527344 2.976562 -7.6875 3.046875 -7.824219 C 3.121094 -7.957031 3.222656 -8.066406 3.351562 -8.152344 C 3.484375 -8.234375 3.636719 -8.296875 3.816406 -8.332031 C 3.992188 -8.371094 4.1875 -8.390625 4.402344 -8.390625 C 4.84375 -8.390625 5.320312 -8.3125 5.832031 -8.15625 C 6.34375 -8 6.824219 -7.789062 7.265625 -7.527344 Z M 8.050781 -9.046875 "/></g></g></g><g fill="#1e2022" fill-opacity="1"><g transform="translate(9.592732, 17.312462)"><g><path d="M 9.792969 -8.484375 C 9.5625 -8.726562 9.304688 -8.945312 9.015625 -9.132812 C 8.730469 -9.324219 8.414062 -9.484375 8.066406 -9.617188 C 7.71875 -9.746094 7.347656 -9.847656 6.949219 -9.914062 C 6.546875 -9.984375 6.125 -10.019531 5.675781 -10.019531 C 4.9375 -10.019531 4.261719 -9.894531 3.640625 -9.648438 C 3.023438 -9.402344 2.496094 -9.058594 2.054688 -8.613281 C 1.613281 -8.171875 1.273438 -7.640625 1.023438 -7.019531 C 0.777344 -6.398438 0.65625 -5.710938 0.65625 -4.960938 C 0.65625 -4.214844 0.777344 -3.53125 1.023438 -2.910156 C 1.273438 -2.292969 1.613281 -1.761719 2.054688 -1.320312 C 2.496094 -0.878906 3.023438 -0.535156 3.640625 -0.289062 C 4.261719 -0.046875 4.9375 0.0742188 5.675781 0.0742188 C 6.148438 0.0742188 6.59375 0.0351562 7.007812 -0.046875 C 7.421875 -0.128906 7.808594 -0.242188 8.164062 -0.394531 C 8.519531 -0.542969 8.84375 -0.730469 9.132812 -0.949219 C 9.425781 -1.171875 9.683594 -1.421875 9.90625 -1.703125 L 8.707031 -2.882812 C 8.371094 -2.476562 7.953125 -2.175781 7.457031 -1.972656 C 6.960938 -1.769531 6.398438 -1.667969 5.769531 -1.667969 C 5.335938 -1.667969 4.941406 -1.746094 4.578125 -1.90625 C 4.214844 -2.066406 3.90625 -2.289062 3.640625 -2.578125 C 3.378906 -2.871094 3.175781 -3.214844 3.027344 -3.617188 C 2.882812 -4.023438 2.808594 -4.46875 2.808594 -4.960938 C 2.808594 -5.449219 2.882812 -5.894531 3.027344 -6.296875 C 3.175781 -6.699219 3.378906 -7.042969 3.640625 -7.332031 C 3.90625 -7.617188 4.214844 -7.84375 4.578125 -8 C 4.941406 -8.160156 5.335938 -8.238281 5.769531 -8.238281 C 6.375 -8.238281 6.910156 -8.136719 7.382812 -7.9375 C 7.855469 -7.734375 8.265625 -7.453125 8.613281 -7.097656 Z M 9.792969 -8.484375 "/></g></g></g><g fill="#1e2022" fill-opacity="1"><g transform="translate(20.004588, 17.312462)"><g><path d="M 2.398438 -5.691406 L 2.398438 -4.15625 L 10.355469 -4.15625 C 10.425781 -5.054688 10.382812 -5.867188 10.234375 -6.59375 C 10.085938 -7.316406 9.820312 -7.929688 9.4375 -8.4375 C 9.058594 -8.941406 8.558594 -9.332031 7.9375 -9.605469 C 7.316406 -9.882812 6.566406 -10.019531 5.691406 -10.019531 C 4.957031 -10.011719 4.277344 -9.886719 3.660156 -9.640625 C 3.042969 -9.394531 2.511719 -9.046875 2.066406 -8.605469 C 1.617188 -8.160156 1.273438 -7.632812 1.023438 -7.011719 C 0.777344 -6.394531 0.65625 -5.710938 0.65625 -4.960938 C 0.65625 -4.214844 0.777344 -3.53125 1.019531 -2.910156 C 1.265625 -2.292969 1.605469 -1.761719 2.050781 -1.320312 C 2.492188 -0.878906 3.027344 -0.535156 3.65625 -0.289062 C 4.285156 -0.046875 4.980469 0.0742188 5.75 0.0742188 C 6.617188 0.0742188 7.398438 -0.0703125 8.09375 -0.363281 C 8.789062 -0.660156 9.382812 -1.074219 9.867188 -1.609375 L 8.726562 -2.753906 C 8.359375 -2.367188 7.9375 -2.074219 7.457031 -1.871094 C 6.980469 -1.671875 6.46875 -1.574219 5.917969 -1.574219 C 5.449219 -1.574219 5.019531 -1.65625 4.628906 -1.820312 C 4.238281 -1.988281 3.90625 -2.222656 3.625 -2.523438 C 3.34375 -2.828125 3.125 -3.195312 2.96875 -3.628906 C 2.8125 -4.0625 2.734375 -4.542969 2.734375 -5.074219 C 2.734375 -5.574219 2.804688 -6.027344 2.949219 -6.429688 C 3.09375 -6.832031 3.296875 -7.175781 3.558594 -7.46875 C 3.820312 -7.757812 4.132812 -7.980469 4.5 -8.136719 C 4.863281 -8.292969 5.269531 -8.371094 5.710938 -8.371094 C 6.117188 -8.371094 6.488281 -8.308594 6.820312 -8.1875 C 7.15625 -8.066406 7.441406 -7.890625 7.683594 -7.660156 C 7.921875 -7.429688 8.113281 -7.148438 8.25 -6.816406 C 8.386719 -6.484375 8.464844 -6.109375 8.484375 -5.691406 Z M 2.398438 -5.691406 "/></g></g></g><g fill="#1e2022" fill-opacity="1"><g transform="translate(31.015692, 17.312462)"><g><path d="M 8.96875 0 L 11.125 0 L 11.125 -6.179688 C 11.125 -6.773438 11.039062 -7.308594 10.871094 -7.78125 C 10.703125 -8.253906 10.460938 -8.65625 10.140625 -8.988281 C 9.824219 -9.320312 9.433594 -9.574219 8.976562 -9.753906 C 8.515625 -9.929688 7.996094 -10.019531 7.414062 -10.019531 C 6.753906 -10.011719 6.160156 -9.914062 5.632812 -9.730469 C 5.105469 -9.542969 4.65625 -9.242188 4.285156 -8.828125 C 3.914062 -8.417969 3.625 -7.890625 3.425781 -7.242188 C 3.226562 -6.597656 3.128906 -5.8125 3.128906 -4.886719 L 3.726562 -4.886719 C 3.726562 -5.34375 3.792969 -5.765625 3.921875 -6.15625 C 4.054688 -6.546875 4.242188 -6.886719 4.484375 -7.171875 C 4.730469 -7.460938 5.027344 -7.6875 5.378906 -7.851562 C 5.730469 -8.015625 6.128906 -8.101562 6.574219 -8.109375 C 6.949219 -8.109375 7.285156 -8.050781 7.578125 -7.941406 C 7.875 -7.828125 8.128906 -7.664062 8.332031 -7.449219 C 8.539062 -7.234375 8.695312 -6.972656 8.804688 -6.664062 C 8.914062 -6.351562 8.96875 -6.003906 8.96875 -5.617188 Z M 1.589844 0 L 3.746094 0 L 3.746094 -9.945312 L 1.589844 -9.945312 Z M 1.589844 0 "/></g></g></g><g fill="#1e2022" fill-opacity="1"><g transform="translate(43.431275, 17.312462)"><g><path d="M 4.121094 -12.304688 L 1.984375 -12.304688 L 1.984375 -2.773438 C 1.984375 -2.257812 2.058594 -1.824219 2.210938 -1.460938 C 2.359375 -1.097656 2.5625 -0.800781 2.820312 -0.570312 C 3.074219 -0.339844 3.371094 -0.171875 3.707031 -0.0664062 C 4.046875 0.0390625 4.402344 0.09375 4.773438 0.09375 C 4.988281 0.09375 5.195312 0.078125 5.402344 0.046875 C 5.609375 0.015625 5.816406 -0.03125 6.019531 -0.0976562 C 6.226562 -0.164062 6.429688 -0.242188 6.632812 -0.335938 C 6.835938 -0.429688 7.035156 -0.535156 7.230469 -0.65625 L 6.683594 -2.210938 C 6.390625 -2.058594 6.125 -1.949219 5.886719 -1.871094 C 5.644531 -1.796875 5.410156 -1.761719 5.1875 -1.761719 C 5.019531 -1.761719 4.867188 -1.78125 4.738281 -1.824219 C 4.605469 -1.871094 4.496094 -1.945312 4.402344 -2.050781 C 4.308594 -2.15625 4.238281 -2.296875 4.191406 -2.476562 C 4.144531 -2.65625 4.121094 -2.878906 4.121094 -3.144531 Z M 0.582031 -8.410156 L 7.058594 -8.410156 L 7.058594 -9.945312 L 0.582031 -9.945312 Z M 0.582031 -8.410156 "/></g></g></g><g fill="#1e2022" fill-opacity="1"><g transform="translate(51.052908, 17.312462)"><g><path d="M 7.828125 -4.4375 L 7.828125 -5.972656 L 4.53125 -5.972656 C 3.933594 -5.972656 3.398438 -5.902344 2.929688 -5.761719 C 2.460938 -5.621094 2.070312 -5.421875 1.75 -5.160156 C 1.433594 -4.898438 1.1875 -4.582031 1.019531 -4.21875 C 0.851562 -3.851562 0.769531 -3.445312 0.769531 -2.996094 C 0.769531 -2.558594 0.847656 -2.152344 1.011719 -1.777344 C 1.171875 -1.40625 1.40625 -1.078125 1.707031 -0.800781 C 2.011719 -0.523438 2.378906 -0.304688 2.8125 -0.144531 C 3.246094 0.015625 3.734375 0.09375 4.269531 0.09375 C 4.714844 0.09375 5.125 0.0546875 5.511719 -0.0273438 C 5.894531 -0.109375 6.242188 -0.230469 6.558594 -0.394531 C 6.875 -0.554688 7.152344 -0.757812 7.386719 -1 C 7.625 -1.246094 7.820312 -1.53125 7.976562 -1.855469 L 7.566406 -3.671875 C 7.558594 -3.371094 7.480469 -3.089844 7.332031 -2.832031 C 7.183594 -2.574219 6.980469 -2.351562 6.726562 -2.164062 C 6.476562 -1.976562 6.175781 -1.828125 5.832031 -1.71875 C 5.488281 -1.609375 5.117188 -1.554688 4.71875 -1.554688 C 4.417969 -1.554688 4.152344 -1.589844 3.914062 -1.660156 C 3.675781 -1.734375 3.472656 -1.835938 3.304688 -1.964844 C 3.136719 -2.097656 3.007812 -2.257812 2.921875 -2.445312 C 2.835938 -2.632812 2.789062 -2.839844 2.789062 -3.070312 C 2.789062 -3.558594 2.957031 -3.90625 3.292969 -4.121094 C 3.625 -4.332031 4.144531 -4.4375 4.851562 -4.4375 Z M 7.566406 0 L 9.683594 0 L 9.664062 -6.535156 C 9.65625 -7.078125 9.566406 -7.566406 9.386719 -7.996094 C 9.210938 -8.425781 8.949219 -8.792969 8.605469 -9.09375 C 8.261719 -9.390625 7.84375 -9.621094 7.34375 -9.78125 C 6.847656 -9.9375 6.28125 -10.019531 5.636719 -10.019531 C 5.164062 -10.019531 4.738281 -9.992188 4.363281 -9.933594 C 3.988281 -9.878906 3.636719 -9.796875 3.304688 -9.6875 C 2.972656 -9.578125 2.652344 -9.441406 2.339844 -9.285156 C 2.027344 -9.125 1.699219 -8.9375 1.347656 -8.726562 L 2.226562 -7.339844 C 2.476562 -7.507812 2.726562 -7.65625 2.972656 -7.785156 C 3.21875 -7.914062 3.464844 -8.019531 3.710938 -8.109375 C 3.960938 -8.195312 4.203125 -8.261719 4.449219 -8.304688 C 4.691406 -8.347656 4.929688 -8.371094 5.167969 -8.371094 C 5.957031 -8.371094 6.546875 -8.191406 6.949219 -7.828125 C 7.347656 -7.464844 7.546875 -6.960938 7.546875 -6.3125 Z M 7.566406 0 "/></g></g></g></g></g></g><g clip-path="url(#2f1a551dd8)"><g transform="matrix(1, 0, 0, 1, 178, 0.000000000000005773)"><g clip-path="url(#cbbd4cc613)"><g fill="#ba181b" fill-opacity="1"><g transform="translate(0.892288, 17.716881)"><g><path d="M 1.722656 0 L 9.605469 0 L 9.605469 -1.890625 L 3.933594 -1.890625 L 3.933594 -13.109375 L 1.722656 -13.109375 Z M 1.722656 0 "/></g></g></g><g fill="#ba181b" fill-opacity="1"><g transform="translate(10.967077, 17.716881)"><g><path d="M 7.828125 -4.4375 L 7.828125 -5.972656 L 4.53125 -5.972656 C 3.933594 -5.972656 3.398438 -5.902344 2.929688 -5.761719 C 2.460938 -5.621094 2.070312 -5.421875 1.75 -5.160156 C 1.433594 -4.898438 1.1875 -4.582031 1.019531 -4.21875 C 0.851562 -3.851562 0.769531 -3.445312 0.769531 -2.996094 C 0.769531 -2.558594 0.847656 -2.152344 1.011719 -1.777344 C 1.171875 -1.40625 1.40625 -1.078125 1.707031 -0.800781 C 2.011719 -0.523438 2.378906 -0.304688 2.8125 -0.144531 C 3.246094 0.015625 3.734375 0.09375 4.269531 0.09375 C 4.714844 0.09375 5.125 0.0546875 5.511719 -0.0273438 C 5.894531 -0.109375 6.242188 -0.230469 6.558594 -0.394531 C 6.875 -0.554688 7.152344 -0.757812 7.386719 -1 C 7.625 -1.246094 7.820312 -1.53125 7.976562 -1.855469 L 7.566406 -3.671875 C 7.558594 -3.371094 7.480469 -3.089844 7.332031 -2.832031 C 7.183594 -2.574219 6.980469 -2.351562 6.726562 -2.164062 C 6.476562 -1.976562 6.175781 -1.828125 5.832031 -1.71875 C 5.488281 -1.609375 5.117188 -1.554688 4.71875 -1.554688 C 4.417969 -1.554688 4.152344 -1.589844 3.914062 -1.660156 C 3.675781 -1.734375 3.472656 -1.835938 3.304688 -1.964844 C 3.136719 -2.097656 3.007812 -2.257812 2.921875 -2.445312 C 2.835938 -2.632812 2.789062 -2.839844 2.789062 -3.070312 C 2.789062 -3.558594 2.957031 -3.90625 3.292969 -4.121094 C 3.625 -4.332031 4.144531 -4.4375 4.851562 -4.4375 Z M 7.566406 0 L 9.683594 0 L 9.664062 -6.535156 C 9.65625 -7.078125 9.566406 -7.566406 9.386719 -7.996094 C 9.210938 -8.425781 8.949219 -8.792969 8.605469 -9.09375 C 8.261719 -9.390625 7.84375 -9.621094 7.34375 -9.78125 C 6.847656 -9.9375 6.28125 -10.019531 5.636719 -10.019531 C 5.164062 -10.019531 4.738281 -9.992188 4.363281 -9.933594 C 3.988281 -9.878906 3.636719 -9.796875 3.304688 -9.6875 C 2.972656 -9.578125 2.652344 -9.441406 2.339844 -9.285156 C 2.027344 -9.125 1.699219 -8.9375 1.347656 -8.726562 L 2.226562 -7.339844 C 2.476562 -7.507812 2.726562 -7.65625 2.972656 -7.785156 C 3.21875 -7.914062 3.464844 -8.019531 3.710938 -8.109375 C 3.960938 -8.195312 4.203125 -8.261719 4.449219 -8.304688 C 4.691406 -8.347656 4.929688 -8.371094 5.167969 -8.371094 C 5.957031 -8.371094 6.546875 -8.191406 6.949219 -7.828125 C 7.347656 -7.464844 7.546875 -6.960938 7.546875 -6.3125 Z M 7.566406 0 "/></g></g></g><g clip-path="url(#3a14ad54fb)"><g fill="#ba181b" fill-opacity="1"><g transform="translate(21.940729, 17.716881)"><g><path d="M 7.320312 -10.019531 C 6.65625 -10.019531 6.054688 -9.90625 5.523438 -9.675781 C 4.992188 -9.449219 4.542969 -9.117188 4.175781 -8.683594 C 3.808594 -8.25 3.527344 -7.71875 3.332031 -7.089844 C 3.140625 -6.457031 3.046875 -5.742188 3.050781 -4.945312 C 3.046875 -4.164062 3.140625 -3.464844 3.332031 -2.84375 C 3.527344 -2.222656 3.808594 -1.695312 4.175781 -1.265625 C 4.542969 -0.832031 4.996094 -0.503906 5.535156 -0.273438 C 6.070312 -0.0390625 6.679688 0.0742188 7.359375 0.0742188 C 8.070312 0.0742188 8.71875 -0.046875 9.296875 -0.289062 C 9.878906 -0.535156 10.375 -0.875 10.785156 -1.316406 C 11.199219 -1.753906 11.515625 -2.285156 11.742188 -2.902344 C 11.964844 -3.519531 12.078125 -4.199219 12.078125 -4.945312 C 12.078125 -5.699219 11.964844 -6.386719 11.734375 -7.007812 C 11.5 -7.628906 11.175781 -8.164062 10.757812 -8.609375 C 10.339844 -9.054688 9.839844 -9.402344 9.253906 -9.648438 C 8.671875 -9.894531 8.027344 -10.019531 7.320312 -10.019531 Z M 6.871094 -8.316406 C 7.316406 -8.316406 7.722656 -8.230469 8.09375 -8.066406 C 8.464844 -7.902344 8.785156 -7.671875 9.054688 -7.375 C 9.324219 -7.078125 9.53125 -6.726562 9.683594 -6.324219 C 9.832031 -5.921875 9.90625 -5.480469 9.90625 -5 C 9.90625 -4.511719 9.832031 -4.066406 9.683594 -3.65625 C 9.53125 -3.246094 9.324219 -2.894531 9.054688 -2.601562 C 8.785156 -2.308594 8.464844 -2.082031 8.09375 -1.914062 C 7.722656 -1.75 7.316406 -1.667969 6.871094 -1.667969 C 6.429688 -1.667969 6.023438 -1.746094 5.652344 -1.910156 C 5.28125 -2.074219 4.960938 -2.300781 4.691406 -2.59375 C 4.421875 -2.886719 4.214844 -3.238281 4.0625 -3.648438 C 3.914062 -4.054688 3.839844 -4.507812 3.839844 -5 C 3.839844 -5.480469 3.914062 -5.925781 4.0625 -6.328125 C 4.214844 -6.734375 4.421875 -7.085938 4.691406 -7.378906 C 4.960938 -7.671875 5.28125 -7.902344 5.652344 -8.066406 C 6.023438 -8.230469 6.429688 -8.316406 6.871094 -8.316406 Z M 1.683594 0 L 3.839844 0 L 3.839844 -13.894531 L 1.683594 -13.894531 Z M 1.683594 0 "/></g></g></g></g></g></g></g><g clip-path="url(#3adafdf042)"><path fill="#1e2022" d="M 110.441406 17.660156 L 114.445312 17.660156 L 108.691406 4.546875 L 106.578125 4.546875 L 100.828125 17.660156 L 101.316406 17.660156 L 103.078125 13.652344 L 106.058594 13.648438 L 105.859375 13.1875 L 103.277344 13.199219 L 105.902344 7.230469 Z M 110.441406 17.660156 " fill-opacity="1" fill-rule="nonzero"/></g><g fill="#1e2022" fill-opacity="1"><g transform="translate(0.746443, 16.67954)"><g><path d="M 1.503906 -11.441406 L 1.503906 0 L 3.433594 0 L 3.433594 -4.332031 L 2.582031 -3.480469 L 6.0625 -3.480469 C 6.78125 -3.480469 7.421875 -3.574219 7.984375 -3.753906 C 8.546875 -3.9375 9.019531 -4.203125 9.40625 -4.546875 C 9.792969 -4.894531 10.085938 -5.320312 10.289062 -5.828125 C 10.488281 -6.332031 10.589844 -6.90625 10.589844 -7.550781 C 10.589844 -8.167969 10.488281 -8.714844 10.289062 -9.199219 C 10.085938 -9.679688 9.792969 -10.085938 9.40625 -10.417969 C 9.019531 -10.75 8.546875 -11.003906 7.984375 -11.179688 C 7.421875 -11.355469 6.78125 -11.441406 6.0625 -11.441406 Z M 2.582031 -5.132812 L 3.433594 -4.28125 L 3.433594 -10.640625 L 2.582031 -9.789062 L 5.980469 -9.789062 C 6.421875 -9.789062 6.816406 -9.742188 7.160156 -9.652344 C 7.5 -9.558594 7.789062 -9.417969 8.023438 -9.230469 C 8.257812 -9.042969 8.4375 -8.804688 8.558594 -8.515625 C 8.683594 -8.226562 8.742188 -7.890625 8.742188 -7.5 C 8.742188 -7.105469 8.683594 -6.757812 8.558594 -6.460938 C 8.4375 -6.164062 8.257812 -5.917969 8.023438 -5.71875 C 7.789062 -5.523438 7.5 -5.378906 7.160156 -5.277344 C 6.816406 -5.179688 6.421875 -5.132812 5.980469 -5.132812 Z M 2.582031 -5.132812 "/></g></g></g><g fill="#1e2022" fill-opacity="1"><g transform="translate(11.547757, 16.67954)"><g><path d="M 5.117188 -8.742188 C 4.441406 -8.742188 3.824219 -8.636719 3.269531 -8.425781 C 2.714844 -8.214844 2.234375 -7.914062 1.835938 -7.527344 C 1.433594 -7.140625 1.125 -6.675781 0.902344 -6.136719 C 0.683594 -5.597656 0.570312 -5 0.570312 -4.347656 C 0.570312 -3.695312 0.683594 -3.097656 0.902344 -2.554688 C 1.125 -2.011719 1.433594 -1.546875 1.835938 -1.160156 C 2.234375 -0.773438 2.714844 -0.472656 3.269531 -0.257812 C 3.824219 -0.0429688 4.441406 0.0664062 5.117188 0.0664062 C 5.785156 0.0664062 6.398438 -0.0429688 6.953125 -0.257812 C 7.511719 -0.472656 7.988281 -0.773438 8.382812 -1.160156 C 8.78125 -1.546875 9.089844 -2.011719 9.3125 -2.554688 C 9.53125 -3.097656 9.644531 -3.695312 9.644531 -4.347656 C 9.644531 -5 9.53125 -5.597656 9.3125 -6.136719 C 9.089844 -6.675781 8.78125 -7.140625 8.382812 -7.527344 C 7.988281 -7.914062 7.511719 -8.214844 6.953125 -8.425781 C 6.398438 -8.636719 5.785156 -8.742188 5.117188 -8.742188 Z M 5.117188 -7.222656 C 5.503906 -7.222656 5.859375 -7.152344 6.183594 -7.011719 C 6.507812 -6.871094 6.785156 -6.671875 7.019531 -6.414062 C 7.253906 -6.160156 7.4375 -5.855469 7.566406 -5.5 C 7.699219 -5.144531 7.761719 -4.757812 7.761719 -4.332031 C 7.761719 -3.902344 7.699219 -3.503906 7.566406 -3.144531 C 7.4375 -2.785156 7.253906 -2.480469 7.019531 -2.226562 C 6.785156 -1.972656 6.507812 -1.777344 6.183594 -1.632812 C 5.859375 -1.492188 5.503906 -1.421875 5.117188 -1.421875 C 4.722656 -1.421875 4.363281 -1.492188 4.035156 -1.632812 C 3.710938 -1.777344 3.429688 -1.972656 3.195312 -2.226562 C 2.960938 -2.480469 2.777344 -2.785156 2.648438 -3.144531 C 2.515625 -3.503906 2.453125 -3.902344 2.453125 -4.332031 C 2.453125 -4.757812 2.515625 -5.144531 2.648438 -5.5 C 2.777344 -5.855469 2.960938 -6.160156 3.195312 -6.414062 C 3.429688 -6.671875 3.710938 -6.871094 4.035156 -7.011719 C 4.363281 -7.152344 4.722656 -7.222656 5.117188 -7.222656 Z M 5.117188 -7.222656 "/></g></g></g><g fill="#1e2022" fill-opacity="1"><g transform="translate(21.515674, 16.67954)"><g><path d="M 3.21875 0 L 5.148438 0 L 7.355469 -6.570312 L 9.5625 0 L 11.507812 0 L 14.675781 -8.679688 L 12.765625 -8.679688 L 10.542969 -1.734375 L 8.335938 -8.679688 L 6.390625 -8.679688 L 4.199219 -1.734375 L 1.945312 -8.679688 L 0.015625 -8.679688 Z M 3.21875 0 "/></g></g></g><g fill="#1e2022" fill-opacity="1"><g transform="translate(35.862962, 16.67954)"><g><path d="M 2.09375 -4.96875 L 2.09375 -3.628906 L 9.039062 -3.628906 C 9.097656 -4.414062 9.0625 -5.121094 8.933594 -5.753906 C 8.800781 -6.386719 8.570312 -6.921875 8.238281 -7.363281 C 7.90625 -7.804688 7.46875 -8.144531 6.925781 -8.382812 C 6.382812 -8.625 5.730469 -8.742188 4.96875 -8.742188 C 4.324219 -8.738281 3.734375 -8.628906 3.195312 -8.414062 C 2.65625 -8.199219 2.191406 -7.898438 1.800781 -7.511719 C 1.414062 -7.125 1.109375 -6.660156 0.894531 -6.121094 C 0.679688 -5.582031 0.570312 -4.984375 0.570312 -4.332031 C 0.570312 -3.675781 0.679688 -3.082031 0.890625 -2.542969 C 1.101562 -2.003906 1.402344 -1.539062 1.789062 -1.152344 C 2.175781 -0.765625 2.644531 -0.464844 3.191406 -0.253906 C 3.738281 -0.0390625 4.347656 0.0664062 5.019531 0.0664062 C 5.773438 0.0664062 6.457031 -0.0625 7.066406 -0.320312 C 7.671875 -0.574219 8.1875 -0.9375 8.613281 -1.40625 L 7.617188 -2.402344 C 7.292969 -2.066406 6.925781 -1.808594 6.507812 -1.632812 C 6.09375 -1.460938 5.644531 -1.371094 5.164062 -1.371094 C 4.757812 -1.371094 4.382812 -1.445312 4.042969 -1.589844 C 3.699219 -1.734375 3.40625 -1.9375 3.164062 -2.203125 C 2.917969 -2.464844 2.726562 -2.789062 2.589844 -3.167969 C 2.453125 -3.546875 2.386719 -3.964844 2.386719 -4.429688 C 2.386719 -4.863281 2.449219 -5.257812 2.574219 -5.609375 C 2.699219 -5.960938 2.875 -6.265625 3.105469 -6.515625 C 3.335938 -6.769531 3.609375 -6.964844 3.925781 -7.101562 C 4.246094 -7.238281 4.597656 -7.304688 4.984375 -7.304688 C 5.339844 -7.304688 5.660156 -7.253906 5.953125 -7.144531 C 6.246094 -7.039062 6.496094 -6.886719 6.707031 -6.683594 C 6.914062 -6.484375 7.078125 -6.238281 7.199219 -5.949219 C 7.320312 -5.660156 7.386719 -5.332031 7.402344 -4.96875 Z M 2.09375 -4.96875 "/></g></g></g><g fill="#1e2022" fill-opacity="1"><g transform="translate(45.471429, 16.67954)"><g><path d="M 6.277344 -8.742188 C 5.726562 -8.738281 5.230469 -8.640625 4.792969 -8.445312 C 4.355469 -8.253906 3.984375 -7.96875 3.675781 -7.59375 C 3.371094 -7.214844 3.136719 -6.75 2.976562 -6.195312 C 2.8125 -5.640625 2.730469 -4.996094 2.730469 -4.265625 L 3.253906 -4.199219 C 3.253906 -4.625 3.320312 -5.015625 3.460938 -5.375 C 3.601562 -5.730469 3.800781 -6.035156 4.0625 -6.289062 C 4.324219 -6.542969 4.640625 -6.738281 5.011719 -6.871094 C 5.386719 -7.007812 5.808594 -7.066406 6.277344 -7.042969 Z M 1.390625 0 L 3.269531 0 L 3.269531 -8.679688 L 1.390625 -8.679688 Z M 1.390625 0 "/></g></g></g><g fill="#1e2022" fill-opacity="1"><g transform="translate(51.72997, 16.67954)"><g><path d="M 2.09375 -4.96875 L 2.09375 -3.628906 L 9.039062 -3.628906 C 9.097656 -4.414062 9.0625 -5.121094 8.933594 -5.753906 C 8.800781 -6.386719 8.570312 -6.921875 8.238281 -7.363281 C 7.90625 -7.804688 7.46875 -8.144531 6.925781 -8.382812 C 6.382812 -8.625 5.730469 -8.742188 4.96875 -8.742188 C 4.324219 -8.738281 3.734375 -8.628906 3.195312 -8.414062 C 2.65625 -8.199219 2.191406 -7.898438 1.800781 -7.511719 C 1.414062 -7.125 1.109375 -6.660156 0.894531 -6.121094 C 0.679688 -5.582031 0.570312 -4.984375 0.570312 -4.332031 C 0.570312 -3.675781 0.679688 -3.082031 0.890625 -2.542969 C 1.101562 -2.003906 1.402344 -1.539062 1.789062 -1.152344 C 2.175781 -0.765625 2.644531 -0.464844 3.191406 -0.253906 C 3.738281 -0.0390625 4.347656 0.0664062 5.019531 0.0664062 C 5.773438 0.0664062 6.457031 -0.0625 7.066406 -0.320312 C 7.671875 -0.574219 8.1875 -0.9375 8.613281 -1.40625 L 7.617188 -2.402344 C 7.292969 -2.066406 6.925781 -1.808594 6.507812 -1.632812 C 6.09375 -1.460938 5.644531 -1.371094 5.164062 -1.371094 C 4.757812 -1.371094 4.382812 -1.445312 4.042969 -1.589844 C 3.699219 -1.734375 3.40625 -1.9375 3.164062 -2.203125 C 2.917969 -2.464844 2.726562 -2.789062 2.589844 -3.167969 C 2.453125 -3.546875 2.386719 -3.964844 2.386719 -4.429688 C 2.386719 -4.863281 2.449219 -5.257812 2.574219 -5.609375 C 2.699219 -5.960938 2.875 -6.265625 3.105469 -6.515625 C 3.335938 -6.769531 3.609375 -6.964844 3.925781 -7.101562 C 4.246094 -7.238281 4.597656 -7.304688 4.984375 -7.304688 C 5.339844 -7.304688 5.660156 -7.253906 5.953125 -7.144531 C 6.246094 -7.039062 6.496094 -6.886719 6.707031 -6.683594 C 6.914062 -6.484375 7.078125 -6.238281 7.199219 -5.949219 C 7.320312 -5.660156 7.386719 -5.332031 7.402344 -4.96875 Z M 2.09375 -4.96875 "/></g></g></g><g fill="#1e2022" fill-opacity="1"><g transform="translate(61.338438, 16.67954)"><g><path d="M 4.707031 -8.761719 C 4.097656 -8.761719 3.539062 -8.652344 3.027344 -8.441406 C 2.519531 -8.230469 2.082031 -7.929688 1.71875 -7.542969 C 1.359375 -7.15625 1.074219 -6.691406 0.875 -6.152344 C 0.671875 -5.613281 0.570312 -5.019531 0.570312 -4.363281 C 0.570312 -3.703125 0.671875 -3.101562 0.871094 -2.558594 C 1.070312 -2.011719 1.351562 -1.542969 1.714844 -1.152344 C 2.082031 -0.761719 2.519531 -0.457031 3.03125 -0.242188 C 3.542969 -0.0273438 4.113281 0.0820312 4.738281 0.0820312 C 5.339844 0.0820312 5.871094 -0.0195312 6.335938 -0.21875 C 6.804688 -0.421875 7.195312 -0.714844 7.515625 -1.09375 C 7.832031 -1.476562 8.074219 -1.941406 8.242188 -2.488281 C 8.40625 -3.035156 8.488281 -3.65625 8.484375 -4.347656 C 8.488281 -5.035156 8.40625 -5.648438 8.238281 -6.195312 C 8.070312 -6.738281 7.824219 -7.203125 7.5 -7.582031 C 7.179688 -7.964844 6.785156 -8.257812 6.3125 -8.457031 C 5.839844 -8.660156 5.304688 -8.761719 4.707031 -8.761719 Z M 5.132812 -7.242188 C 5.523438 -7.242188 5.882812 -7.167969 6.210938 -7.023438 C 6.539062 -6.878906 6.816406 -6.679688 7.050781 -6.417969 C 7.285156 -6.160156 7.46875 -5.851562 7.601562 -5.496094 C 7.730469 -5.140625 7.796875 -4.746094 7.796875 -4.316406 C 7.796875 -3.890625 7.730469 -3.5 7.601562 -3.140625 C 7.46875 -2.785156 7.285156 -2.480469 7.050781 -2.222656 C 6.816406 -1.964844 6.539062 -1.765625 6.210938 -1.621094 C 5.882812 -1.476562 5.523438 -1.40625 5.132812 -1.40625 C 4.734375 -1.40625 4.371094 -1.476562 4.046875 -1.621094 C 3.71875 -1.765625 3.4375 -1.964844 3.203125 -2.222656 C 2.96875 -2.480469 2.785156 -2.785156 2.65625 -3.140625 C 2.523438 -3.5 2.457031 -3.890625 2.453125 -4.316406 C 2.457031 -4.738281 2.523438 -5.128906 2.65625 -5.488281 C 2.785156 -5.84375 2.96875 -6.152344 3.207031 -6.414062 C 3.445312 -6.675781 3.726562 -6.878906 4.054688 -7.023438 C 4.378906 -7.167969 4.738281 -7.242188 5.132812 -7.242188 Z M 7.796875 0 L 9.675781 0 L 9.675781 -12.128906 L 7.796875 -12.128906 Z M 7.796875 0 "/></g></g></g><g fill="#1e2022" fill-opacity="1"><g transform="translate(72.482954, 16.67954)"><g/></g></g><g fill="#1e2022" fill-opacity="1"><g transform="translate(76.895005, 16.67954)"><g><path d="M 6.390625 -8.742188 C 5.808594 -8.742188 5.285156 -8.644531 4.820312 -8.445312 C 4.359375 -8.246094 3.964844 -7.957031 3.644531 -7.578125 C 3.324219 -7.199219 3.078125 -6.738281 2.910156 -6.1875 C 2.742188 -5.636719 2.660156 -5.011719 2.664062 -4.316406 C 2.660156 -3.632812 2.742188 -3.023438 2.910156 -2.480469 C 3.078125 -1.9375 3.324219 -1.480469 3.644531 -1.101562 C 3.964844 -0.726562 4.359375 -0.4375 4.828125 -0.238281 C 5.296875 -0.0351562 5.828125 0.0664062 6.421875 0.0664062 C 7.042969 0.0664062 7.609375 -0.0390625 8.113281 -0.253906 C 8.621094 -0.464844 9.054688 -0.765625 9.414062 -1.148438 C 9.773438 -1.53125 10.050781 -1.992188 10.246094 -2.535156 C 10.445312 -3.074219 10.542969 -3.667969 10.542969 -4.316406 C 10.542969 -4.972656 10.441406 -5.574219 10.238281 -6.117188 C 10.039062 -6.660156 9.753906 -7.125 9.390625 -7.515625 C 9.023438 -7.902344 8.585938 -8.207031 8.078125 -8.421875 C 7.570312 -8.636719 7.007812 -8.742188 6.390625 -8.742188 Z M 6 -7.257812 C 6.386719 -7.257812 6.742188 -7.183594 7.066406 -7.039062 C 7.390625 -6.894531 7.667969 -6.695312 7.902344 -6.433594 C 8.136719 -6.175781 8.320312 -5.871094 8.449219 -5.519531 C 8.582031 -5.167969 8.644531 -4.785156 8.644531 -4.363281 C 8.644531 -3.9375 8.582031 -3.546875 8.449219 -3.191406 C 8.320312 -2.835938 8.136719 -2.527344 7.902344 -2.273438 C 7.667969 -2.015625 7.390625 -1.816406 7.066406 -1.671875 C 6.742188 -1.527344 6.386719 -1.453125 6 -1.453125 C 5.613281 -1.453125 5.257812 -1.527344 4.933594 -1.667969 C 4.609375 -1.808594 4.328125 -2.007812 4.09375 -2.261719 C 3.859375 -2.519531 3.675781 -2.824219 3.546875 -3.183594 C 3.414062 -3.539062 3.351562 -3.933594 3.351562 -4.363281 C 3.351562 -4.785156 3.414062 -5.171875 3.546875 -5.523438 C 3.675781 -5.878906 3.859375 -6.183594 4.09375 -6.441406 C 4.328125 -6.695312 4.609375 -6.894531 4.933594 -7.039062 C 5.257812 -7.183594 5.613281 -7.257812 6 -7.257812 Z M 1.472656 0 L 3.351562 0 L 3.351562 -12.128906 L 1.472656 -12.128906 Z M 1.472656 0 "/></g></g></g><g fill="#1e2022" fill-opacity="1"><g transform="translate(87.76168, 16.67954)"><g><path d="M 8.761719 -8.679688 L 6.878906 -8.679688 L 4.460938 -1.976562 L 1.863281 -8.679688 L -0.0820312 -8.679688 L 3.515625 -0.113281 L 3.21875 0.570312 C 3.074219 0.910156 2.886719 1.160156 2.664062 1.324219 C 2.441406 1.488281 2.183594 1.570312 1.894531 1.570312 C 1.699219 1.570312 1.515625 1.535156 1.339844 1.46875 C 1.164062 1.398438 0.976562 1.292969 0.769531 1.144531 L -0.03125 2.535156 C 0.273438 2.777344 0.585938 2.960938 0.90625 3.078125 C 1.230469 3.195312 1.585938 3.253906 1.976562 3.253906 C 2.632812 3.253906 3.199219 3.082031 3.679688 2.742188 C 4.164062 2.402344 4.539062 1.894531 4.804688 1.226562 Z M 8.761719 -8.679688 "/></g></g></g></g></g></svg>