<svg xmlns="http://www.w3.org/2000/svg" xmlns:xlink="http://www.w3.org/1999/xlink" width="1920" zoomAndPan="magnify" viewBox="0 0 1440 299.999988" height="400" preserveAspectRatio="xMidYMid meet" version="1.0"><path fill="#a50046" d="M 1333.636719 27.847656 L 1384.5 27.847656 L 1384.5 78.710938 L 1333.636719 78.710938 Z M 1333.636719 27.847656 " fill-opacity="1" fill-rule="nonzero"/><path fill="#a50046" d="M 1360.691406 54.179688 L 1364.660156 63.921875 L 1367.1875 63.921875 L 1363.21875 53.820312 L 1366.824219 53.820312 L 1366.824219 41.914062 L 1350.953125 41.914062 L 1350.953125 63.921875 L 1353.117188 63.921875 L 1353.117188 53.820312 Z M 1353.117188 44.082031 L 1364.660156 44.082031 L 1364.660156 52.015625 L 1353.117188 52.015625 Z M 1353.117188 44.082031 " fill-opacity="1" fill-rule="nonzero"/><path fill="#a50046" d="M 177.070312 27.847656 L 177.070312 44.441406 L 71.730469 44.441406 L 71.730469 126.332031 L 137.386719 126.332031 L 137.386719 142.925781 L 71.730469 142.925781 L 71.730469 267.386719 L 55.136719 267.386719 L 55.136719 27.847656 Z M 177.070312 27.847656 " fill-opacity="1" fill-rule="nonzero"/><path fill="#a50046" d="M 226.851562 27.847656 L 243.449219 27.847656 L 243.449219 250.429688 L 343.015625 250.429688 L 343.015625 27.847656 L 359.609375 27.847656 L 359.609375 267.023438 L 226.851562 267.023438 Z M 226.851562 27.847656 " fill-opacity="1" fill-rule="nonzero"/><path fill="#a50046" d="M 553.691406 27.847656 L 553.691406 44.441406 L 496.332031 44.441406 L 496.332031 267.023438 L 479.738281 267.023438 L 479.738281 44.082031 L 422.019531 44.082031 L 422.019531 27.484375 L 553.691406 27.484375 Z M 553.691406 27.847656 " fill-opacity="1" fill-rule="nonzero"/><path fill="#a50046" d="M 622.234375 27.847656 L 638.832031 27.847656 L 638.832031 250.429688 L 738.398438 250.429688 L 738.398438 27.847656 L 754.992188 27.847656 L 754.992188 267.023438 L 622.234375 267.023438 Z M 622.234375 27.847656 " fill-opacity="1" fill-rule="nonzero"/><path fill="#a50046" d="M 962.421875 27.847656 L 962.421875 150.5 L 920.9375 150.5 L 962.421875 267.386719 L 944.023438 267.386719 L 902.179688 150.5 L 846.621094 150.5 L 846.621094 267.386719 L 830.027344 267.386719 L 830.027344 27.847656 Z M 846.984375 133.546875 L 945.109375 133.546875 L 945.109375 44.082031 L 846.621094 44.082031 L 846.621094 133.546875 Z M 846.984375 133.546875 " fill-opacity="1" fill-rule="nonzero"/><path fill="#a50046" d="M 1170.578125 27.847656 L 1170.578125 267.023438 L 1037.820312 267.023438 L 1037.820312 27.847656 Z M 1054.414062 250.429688 L 1153.980469 250.429688 L 1153.980469 44.082031 L 1054.414062 44.082031 Z M 1054.414062 250.429688 " fill-opacity="1" fill-rule="nonzero"/><path fill="#a50046" d="M 1252.105469 27.847656 L 1268.699219 27.847656 L 1268.699219 250.429688 L 1384.863281 250.429688 L 1384.863281 267.023438 L 1252.105469 267.023438 Z M 1252.105469 27.847656 " fill-opacity="1" fill-rule="nonzero"/></svg>