<?xml version="1.0" encoding="utf-8"?>
<!-- Generator: Adobe Illustrator 28.2.0, SVG Export Plug-In . SVG Version: 6.00 Build 0)  -->
<svg version="1.1" id="Vrstva_1" xmlns="http://www.w3.org/2000/svg" xmlns:xlink="http://www.w3.org/1999/xlink" x="0px" y="0px"
	 viewBox="0 0 425.2 184.3" style="enable-background:new 0 0 425.2 184.3;" xml:space="preserve">
<style type="text/css">
	.st0{fill:#A50046;}
	.st1{fill:#FFFFFF;}
	.st2{fill:#1A2126;}
</style>
<g>
	<g>
		<g>
			<rect x="382.7" y="29.6" class="st0" width="14.1" height="14.1"/>
			<path class="st1" d="M390.2,36.9l1.1,2.7h0.7l-1.1-2.8h1v-3.3h-4.4v6.1h0.6v-2.8L390.2,36.9L390.2,36.9z M388.1,34.1h3.2v2.2
				h-3.2V34.1z"/>
		</g>
		<path class="st2" d="M62.1,29.6v4.6H32.9v22.7h18.2v4.6H32.9v34.5h-4.6V29.6H62.1z"/>
		<path class="st2" d="M75.9,29.6h4.6v61.7h27.6V29.6h4.6v66.3H75.9V29.6z"/>
		<path class="st2" d="M166.5,29.6v4.6h-15.9v61.7H146V34.1H130v-4.6H166.5z"/>
		<path class="st2" d="M185.5,29.6h4.6v61.7h27.6V29.6h4.6v66.3h-36.8V29.6z"/>
		<path class="st2" d="M279.8,29.6v34h-11.5l11.5,32.4h-5.1l-11.6-32.4h-15.4v32.4h-4.6V29.6H279.8z M247.8,58.9H275V34.1h-27.3
			V58.9z"/>
		<path class="st2" d="M337.5,29.6v66.3h-36.8V29.6H337.5z M305.3,91.3h27.6V34.1h-27.6V91.3z"/>
		<path class="st2" d="M360.1,29.6h4.6v61.7h27.6l0,0h4.6v4.6h-36.8V29.6z"/>
	</g>
	<g>
		<rect x="28.3" y="109.1" class="st0" width="368.5" height="45.6"/>
		<g>
			<path class="st1" d="M50.6,122.7c-0.7-0.4-1.6-0.6-2.6-0.6c-1,0-1.9,0.2-2.6,0.6c-0.7,0.4-1.3,1-1.7,1.8
				c-0.4,0.8-0.6,1.8-0.6,2.9v10.7c0,1.1,0.2,2.1,0.6,2.9c0.4,0.8,0.9,1.4,1.7,1.8c0.7,0.4,1.6,0.6,2.6,0.6c1,0,1.9-0.2,2.6-0.6
				c0.7-0.4,1.3-1,1.7-1.8c0.4-0.8,0.6-1.8,0.6-2.9v-0.8h-2.4v0.8c0,0.6-0.1,1.2-0.3,1.7c-0.2,0.5-0.5,0.8-0.8,1
				c-0.4,0.2-0.8,0.4-1.3,0.4c-0.5,0-1-0.1-1.3-0.4c-0.4-0.2-0.6-0.6-0.8-1c-0.2-0.5-0.3-1-0.3-1.6v-10.7c0-0.6,0.1-1.2,0.3-1.7
				c0.2-0.5,0.5-0.8,0.8-1c0.4-0.2,0.8-0.4,1.3-0.4c0.5,0,1,0.1,1.3,0.4c0.4,0.2,0.6,0.6,0.8,1c0.2,0.5,0.3,1,0.3,1.6v0.8h2.4v-0.8
				c0-1.1-0.2-2.1-0.6-2.9C51.9,123.8,51.3,123.2,50.6,122.7z"/>
			<polygon class="st1" points="51.9,117.6 50.6,116.2 48,118.3 45.3,116.2 44,117.6 48,120.9 			"/>
			<polygon class="st1" points="62.5,122.3 61.1,122.3 61.1,143.4 62.5,143.4 63.5,143.4 70.1,143.4 70.1,141.1 63.5,141.1 
				63.5,134.1 69.4,134.1 69.4,131.8 63.5,131.8 63.5,124.6 70.1,124.6 70.1,122.3 63.5,122.3 			"/>
			<path class="st1" d="M86.4,133c-0.5-0.4-1.2-0.8-2-1.2c0,0-0.1,0-0.1-0.1c0,0-0.1,0-0.1-0.1c-0.1,0-0.1-0.1-0.2-0.1
				c-0.1,0-0.1-0.1-0.2-0.1c-0.7-0.3-1.3-0.6-1.7-0.9c-0.4-0.3-0.8-0.6-1.1-1c-0.3-0.4-0.4-0.9-0.4-1.5v-1.2c0-0.8,0.2-1.5,0.7-1.9
				c0.5-0.4,1.1-0.6,2-0.6c0.8,0,1.5,0.2,1.9,0.7c0.4,0.5,0.6,1.1,0.7,2v1h2.4V127c0-1.1-0.2-2-0.6-2.7c-0.4-0.7-0.9-1.3-1.7-1.7
				c-0.7-0.4-1.6-0.6-2.7-0.6c-1.1,0-2.1,0.2-2.8,0.6c-0.8,0.4-1.3,0.9-1.7,1.6c-0.4,0.7-0.6,1.6-0.6,2.7v1.1c0,1,0.2,1.8,0.6,2.5
				c0.4,0.7,0.9,1.2,1.5,1.6c0.6,0.4,1.3,0.8,2.3,1.2l0.2,0.1c0,0,0,0,0.1,0c0,0,0,0,0.1,0c0.7,0.3,1.3,0.6,1.7,0.9
				c0.4,0.3,0.8,0.6,1.1,1c0.3,0.4,0.4,0.9,0.4,1.5v1.5c0,0.9-0.2,1.6-0.7,2c-0.4,0.4-1.1,0.7-2,0.7c-0.9,0-1.6-0.2-2-0.7
				c-0.5-0.5-0.7-1.1-0.7-2v-1l-2.4,0v1c0,1.1,0.2,2,0.6,2.7c0.4,0.7,1,1.3,1.7,1.7c0.8,0.4,1.7,0.6,2.8,0.6c1.1,0,2-0.2,2.8-0.6
				c0.7-0.4,1.3-0.9,1.7-1.7c0.4-0.7,0.6-1.6,0.6-2.7V137c0-1-0.2-1.8-0.5-2.5C87.4,133.9,86.9,133.4,86.4,133z"/>
			<polygon class="st1" points="107.3,122.3 104.6,122.3 99,133.4 99,122.3 96.6,122.3 96.6,143.4 99,143.4 99,137.7 101.5,133.1 
				105.2,143.4 108,143.4 102.9,130.5 			"/>
			<polygon class="st1" points="123.6,117.7 121.7,115.9 118.1,119.6 119.6,121 			"/>
			<polygon class="st1" points="119.6,131.7 116.5,122.3 114,122.3 118.4,134.5 118.4,143.4 120.8,143.4 120.8,134.5 125,122.3 
				122.6,122.3 			"/>
			<polygon class="st1" points="148.4,139.7 145.2,122.3 142.7,122.3 146.9,143.4 149.8,143.4 154,122.3 151.5,122.3 			"/>
			<polygon class="st1" points="170.2,117.7 168.4,115.9 164.7,119.6 166.3,121 			"/>
			<polygon class="st1" points="166.2,131.7 163.1,122.3 160.7,122.3 165,134.5 165,143.4 167.5,143.4 167.5,134.5 171.7,122.3 
				169.2,122.3 			"/>
			<path class="st1" d="M186.7,133.9c0.8-0.4,1.4-0.9,1.8-1.7c0.4-0.7,0.6-1.6,0.6-2.7v-2.5c0-1-0.2-1.9-0.6-2.6
				c-0.4-0.7-1-1.3-1.8-1.6c-0.8-0.4-1.7-0.6-2.9-0.6h-2.6h-1.1h-1.3v21h2.4v-8.9h2.6c0.2,0,0.3,0,0.5,0l2.7,8.9h2.7L186.7,133.9
				C186.7,133.9,186.7,133.9,186.7,133.9z M181.3,132.2v-7.6h2.8c0.6,0,1,0.1,1.4,0.3c0.4,0.2,0.7,0.5,0.9,1
				c0.2,0.4,0.3,0.9,0.3,1.5v2.2c0,0.5-0.1,1-0.3,1.4c-0.2,0.4-0.5,0.7-0.9,0.9c-0.4,0.2-0.9,0.3-1.4,0.3H181.3z"/>
			<path class="st1" d="M205.7,122.7c-0.8-0.4-1.7-0.6-2.8-0.6c-1.1,0-2,0.2-2.8,0.6c-0.8,0.4-1.4,1-1.8,1.8
				c-0.4,0.8-0.6,1.8-0.6,2.9v10.9c0,1.1,0.2,2.1,0.6,2.9c0.4,0.8,1,1.4,1.8,1.8c0.8,0.4,1.7,0.6,2.8,0.6c1.1,0,2-0.2,2.8-0.6
				c0.8-0.4,1.4-1,1.8-1.8c0.4-0.8,0.6-1.7,0.6-2.9v-10.9c0-1.1-0.2-2.1-0.6-2.9C207,123.7,206.4,123.1,205.7,122.7z M205.6,138.4
				c0,0.6-0.1,1.1-0.3,1.5c-0.2,0.4-0.5,0.7-1,1c-0.4,0.2-0.9,0.3-1.5,0.3c-0.6,0-1.1-0.1-1.5-0.3c-0.4-0.2-0.7-0.5-1-1
				c-0.2-0.4-0.3-0.9-0.3-1.5v-11.1c0-0.6,0.1-1.1,0.3-1.5c0.2-0.4,0.5-0.7,1-1c0.4-0.2,0.9-0.3,1.5-0.3c0.6,0,1.1,0.1,1.5,0.3
				c0.4,0.2,0.7,0.5,1,1c0.2,0.4,0.3,0.9,0.3,1.5V138.4z"/>
			<path class="st1" d="M225.3,133.1c-0.4-0.3-0.9-0.6-1.4-0.6c0.5-0.1,0.9-0.3,1.2-0.7c0.3-0.3,0.6-0.7,0.8-1.3
				c0.2-0.5,0.3-1.1,0.3-1.8v-2.5c0-0.8-0.2-1.5-0.5-2.1c-0.3-0.6-0.8-1-1.5-1.3c-0.6-0.3-1.4-0.5-2.3-0.5H219h-0.7h-1.7v21h1.7h0.7
				h3.3c0.9,0,1.6-0.2,2.3-0.5c0.6-0.3,1.1-0.8,1.4-1.4c0.3-0.6,0.5-1.3,0.5-2.2v-3.1c0-0.7-0.1-1.3-0.3-1.9
				C226,133.9,225.7,133.4,225.3,133.1z M222,124.6c0.6,0,1,0.2,1.3,0.5c0.3,0.3,0.5,0.7,0.5,1.3v2.6c0,0.7-0.2,1.3-0.5,1.7
				c-0.3,0.4-0.8,0.6-1.3,0.6h-3v-6.7H222z M224.1,139.3c0,0.6-0.2,1-0.5,1.3c-0.3,0.3-0.8,0.5-1.4,0.5H219v-7.6h3
				c0.4,0,0.8,0.1,1.1,0.3c0.3,0.2,0.6,0.5,0.7,0.9c0.2,0.4,0.3,0.8,0.3,1.4V139.3z"/>
			<path class="st1" d="M242.1,122.7c-0.7-0.4-1.6-0.6-2.6-0.6c-1,0-1.9,0.2-2.6,0.6c-0.7,0.4-1.3,1-1.7,1.8
				c-0.4,0.8-0.6,1.8-0.6,2.9v10.7c0,1.1,0.2,2.1,0.6,2.9c0.4,0.8,0.9,1.4,1.7,1.8c0.7,0.4,1.6,0.6,2.6,0.6c1,0,1.9-0.2,2.6-0.6
				c0.7-0.4,1.3-1,1.7-1.8c0.4-0.8,0.6-1.8,0.6-2.9v-0.8h-2.4v0.8c0,0.6-0.1,1.2-0.3,1.7c-0.2,0.5-0.5,0.8-0.8,1
				c-0.4,0.2-0.8,0.4-1.3,0.4c-0.5,0-1-0.1-1.3-0.4c-0.4-0.2-0.6-0.6-0.8-1c-0.2-0.5-0.3-1-0.3-1.6v-10.7c0-0.6,0.1-1.2,0.3-1.7
				c0.2-0.5,0.5-0.8,0.8-1c0.4-0.2,0.8-0.4,1.3-0.4c0.5,0,1,0.1,1.3,0.4c0.4,0.2,0.6,0.6,0.8,1c0.2,0.5,0.3,1,0.3,1.6v0.8h2.4v-0.8
				c0-1.1-0.2-2.1-0.6-2.9C243.3,123.8,242.8,123.2,242.1,122.7z"/>
			<polygon class="st1" points="254,122.3 252.5,122.3 252.5,143.4 254,143.4 254.9,143.4 261.6,143.4 261.6,141.1 254.9,141.1 
				254.9,134.1 260.8,134.1 260.8,131.8 254.9,131.8 254.9,124.6 261.6,124.6 261.6,122.3 254.9,122.3 			"/>
			<path class="st1" d="M289.6,122.9c-0.7-0.4-1.5-0.5-2.4-0.5H284h-0.9h-1.5v21h2.4v-8.2h3.3c0.9,0,1.7-0.2,2.4-0.5
				c0.7-0.4,1.2-0.9,1.5-1.5c0.4-0.7,0.5-1.5,0.5-2.4v-3.7c0-1-0.2-1.8-0.5-2.5C290.8,123.8,290.3,123.2,289.6,122.9z M289.2,130.6
				c0,0.5-0.1,0.9-0.2,1.2c-0.1,0.3-0.4,0.6-0.7,0.8c-0.3,0.2-0.6,0.3-1,0.3H284v-8.3h3.3c0.4,0,0.8,0.1,1,0.3
				c0.3,0.2,0.5,0.5,0.7,0.8c0.2,0.4,0.2,0.8,0.2,1.3V130.6z"/>
			<polygon class="st1" points="301.6,122.3 300.1,122.3 300.1,143.4 301.6,143.4 302.5,143.4 309.2,143.4 309.2,141.1 302.5,141.1 
				302.5,134.1 308.4,134.1 308.4,131.8 302.5,131.8 302.5,124.6 309.2,124.6 309.2,122.3 302.5,122.3 			"/>
			<path class="st1" d="M325.1,133.9c0.8-0.4,1.4-0.9,1.8-1.7c0.4-0.7,0.6-1.6,0.6-2.7v-2.5c0-1-0.2-1.9-0.6-2.6
				c-0.4-0.7-1-1.3-1.8-1.6c-0.8-0.4-1.7-0.6-2.9-0.6h-2.6h-1.1h-1.3v21h2.4v-8.9h2.6c0.2,0,0.3,0,0.5,0l2.7,8.9h2.7L325.1,133.9
				C325,133.9,325.1,133.9,325.1,133.9z M319.7,132.2v-7.6h2.8c0.6,0,1,0.1,1.4,0.3c0.4,0.2,0.7,0.5,0.9,1c0.2,0.4,0.3,0.9,0.3,1.5
				v2.2c0,0.5-0.1,1-0.3,1.4c-0.2,0.4-0.5,0.7-0.9,0.9c-0.4,0.2-0.9,0.3-1.4,0.3H319.7z"/>
			<path class="st1" d="M341,134.3h2.7v3.9c0,0.6-0.1,1.2-0.3,1.6c-0.2,0.5-0.5,0.8-0.9,1c-0.4,0.2-0.9,0.4-1.4,0.4
				c-0.6,0-1.1-0.1-1.5-0.3c-0.4-0.2-0.7-0.5-0.9-0.9c-0.2-0.4-0.3-0.9-0.3-1.5v-11c0-0.6,0.1-1.2,0.3-1.6c0.2-0.5,0.5-0.8,0.9-1
				c0.4-0.2,0.9-0.4,1.4-0.4c0.5,0,0.9,0.1,1.3,0.3s0.6,0.6,0.8,1c0.2,0.4,0.3,1,0.3,1.6v1h2.6v-1c0-1.1-0.2-2-0.6-2.8
				c-0.4-0.8-1-1.4-1.7-1.8c-0.7-0.4-1.6-0.6-2.7-0.6c-1.1,0-2,0.2-2.7,0.6c-0.8,0.4-1.3,1-1.7,1.8c-0.4,0.8-0.6,1.8-0.6,2.9v11
				c0,1.1,0.2,2,0.6,2.7c0.4,0.8,1,1.3,1.8,1.7s1.7,0.6,2.8,0.6c1.1,0,2-0.2,2.7-0.6c0.8-0.4,1.3-1,1.7-1.9c0.4-0.8,0.6-1.8,0.6-2.9
				V132H341V134.3z"/>
			<path class="st1" d="M362.4,122.7c-0.8-0.4-1.7-0.6-2.8-0.6c-1.1,0-2,0.2-2.8,0.6c-0.8,0.4-1.4,1-1.8,1.8
				c-0.4,0.8-0.6,1.8-0.6,2.9v10.9c0,1.1,0.2,2.1,0.6,2.9c0.4,0.8,1,1.4,1.8,1.8c0.8,0.4,1.7,0.6,2.8,0.6c1.1,0,2-0.2,2.8-0.6
				c0.8-0.4,1.4-1,1.8-1.8c0.4-0.8,0.6-1.7,0.6-2.9v-10.9c0-1.1-0.2-2.1-0.6-2.9C363.8,123.7,363.2,123.1,362.4,122.7z M362.4,138.4
				c0,0.6-0.1,1.1-0.3,1.5c-0.2,0.4-0.5,0.7-1,1c-0.4,0.2-0.9,0.3-1.5,0.3c-0.6,0-1.1-0.1-1.5-0.3c-0.4-0.2-0.7-0.5-1-1
				c-0.2-0.4-0.3-0.9-0.3-1.5v-11.1c0-0.6,0.1-1.1,0.3-1.5c0.2-0.4,0.5-0.7,1-1c0.4-0.2,0.9-0.3,1.5-0.3c0.6,0,1.1,0.1,1.5,0.3
				c0.4,0.2,0.7,0.5,1,1c0.2,0.4,0.3,0.9,0.3,1.5V138.4z"/>
			<polygon class="st1" points="375.8,141.1 375.8,122.3 373.4,122.3 373.4,143.4 374.9,143.4 375.8,143.4 382.1,143.4 382.1,141.1 
							"/>
		</g>
	</g>
</g>
</svg>
