<?xml version="1.0" encoding="UTF-8" standalone="no"?>
<!DOCTYPE svg PUBLIC "-//W3C//DTD SVG 1.1//EN" "http://www.w3.org/Graphics/SVG/1.1/DTD/svg11.dtd">
<svg width="100%" height="100%" viewBox="0 0 521 177" version="1.1" xmlns="http://www.w3.org/2000/svg" xmlns:xlink="http://www.w3.org/1999/xlink" xml:space="preserve" xmlns:serif="http://www.serif.com/" style="fill-rule:evenodd;clip-rule:evenodd;stroke-linejoin:round;stroke-miterlimit:2;">
    <g transform="matrix(1,0,0,1,-39.9341,-41.6275)">
        <g transform="matrix(1.4111,0,0,1.4111,0,0)">
            <g>
                <g>
                    <rect x="382.7" y="29.6" width="14.1" height="14.1" style="fill:rgb(165,0,70);"/>
                    <path d="M390.2,36.9L391.3,39.6L392,39.6L390.9,36.8L391.9,36.8L391.9,33.5L387.5,33.5L387.5,39.6L388.1,39.6L388.1,36.8L390.2,36.9ZM388.1,34.1L391.3,34.1L391.3,36.3L388.1,36.3L388.1,34.1Z" style="fill:white;fill-rule:nonzero;"/>
                </g>
                <path d="M62.1,29.6L62.1,34.2L32.9,34.2L32.9,56.9L51.1,56.9L51.1,61.5L32.9,61.5L32.9,96L28.3,96L28.3,29.6L62.1,29.6Z" style="fill:white;fill-rule:nonzero;"/>
                <path d="M75.9,29.6L80.5,29.6L80.5,91.3L108.1,91.3L108.1,29.6L112.7,29.6L112.7,95.9L75.9,95.9L75.9,29.6Z" style="fill:white;fill-rule:nonzero;"/>
                <path d="M166.5,29.5L166.5,34.2L150.6,34.2L150.6,95.9L146,95.9L146,34.1L130,34.1L130,29.5L166.5,29.5Z" style="fill:white;fill-rule:nonzero;"/>
                <path d="M185.5,29.6L190.1,29.6L190.1,91.3L217.7,91.3L217.7,29.6L222.3,29.6L222.3,95.9L185.5,95.9L185.5,29.6Z" style="fill:white;fill-rule:nonzero;"/>
                <path d="M279.8,29.6L279.8,63.6L268.3,63.6L279.8,96L274.7,96L263.1,63.6L247.7,63.6L247.7,96L243.1,96L243.1,29.6L279.8,29.6ZM247.7,58.9L275,58.9L275,34.1L247.7,34.1L247.7,58.9Z" style="fill:white;fill-rule:nonzero;"/>
                <path d="M337.5,29.6L337.5,95.9L300.7,95.9L300.7,29.6L337.5,29.6ZM305.3,91.3L332.9,91.3L332.9,34.1L305.3,34.1L305.3,91.3Z" style="fill:white;fill-rule:nonzero;"/>
                <path d="M360.1,29.6L364.7,29.6L364.7,91.3L396.9,91.3L396.9,95.9L360.1,95.9L360.1,29.6Z" style="fill:white;fill-rule:nonzero;"/>
            </g>
            <g>
                <rect x="28.3" y="109.1" width="368.5" height="45.6" style="fill:rgb(165,0,70);"/>
                <g>
                    <path d="M50.6,122.7C49.9,122.3 49,122.1 48,122.1C47,122.1 46.1,122.3 45.4,122.7C44.7,123.1 44.1,123.7 43.7,124.5C43.3,125.3 43.1,126.3 43.1,127.4L43.1,138.1C43.1,139.2 43.3,140.2 43.7,141C44.1,141.8 44.6,142.4 45.4,142.8C46.1,143.2 47,143.4 48,143.4C49,143.4 49.9,143.2 50.6,142.8C51.3,142.4 51.9,141.8 52.3,141C52.7,140.2 52.9,139.2 52.9,138.1L52.9,137.3L50.5,137.3L50.5,138.1C50.5,138.7 50.4,139.3 50.2,139.8C50,140.3 49.7,140.6 49.4,140.8C49,141 48.6,141.2 48.1,141.2C47.6,141.2 47.1,141.1 46.8,140.8C46.4,140.6 46.2,140.2 46,139.8C45.8,139.3 45.7,138.8 45.7,138.2L45.7,127.5C45.7,126.9 45.8,126.3 46,125.8C46.2,125.3 46.5,125 46.8,124.8C47.2,124.6 47.6,124.4 48.1,124.4C48.6,124.4 49.1,124.5 49.4,124.8C49.8,125 50,125.4 50.2,125.8C50.4,126.3 50.5,126.8 50.5,127.4L50.5,128.2L52.9,128.2L52.9,127.4C52.9,126.3 52.7,125.3 52.3,124.5C51.9,123.8 51.3,123.2 50.6,122.7Z" style="fill:white;fill-rule:nonzero;"/>
                    <path d="M51.9,117.6L50.6,116.2L48,118.3L45.3,116.2L44,117.6L48,120.9L51.9,117.6Z" style="fill:white;fill-rule:nonzero;"/>
                    <path d="M70.1,122.3L61.1,122.3L61.1,143.4L70.1,143.4L70.1,141.1L63.5,141.1L63.5,134.1L69.4,134.1L69.4,131.8L63.5,131.8L63.5,124.6L70.1,124.6L70.1,122.3Z" style="fill:white;fill-rule:nonzero;"/>
                    <path d="M86.4,133C85.9,132.6 85.2,132.2 84.4,131.8C84.4,131.8 84.3,131.8 84.3,131.7C84.3,131.7 84.2,131.7 84.2,131.6C84.1,131.6 84.1,131.5 84,131.5C83.9,131.5 83.9,131.4 83.8,131.4C83.1,131.1 82.5,130.8 82.1,130.5C81.7,130.2 81.3,129.9 81,129.5C80.7,129.1 80.6,128.6 80.6,128L80.6,126.8C80.6,126 80.8,125.3 81.3,124.9C81.8,124.5 82.4,124.3 83.3,124.3C84.1,124.3 84.8,124.5 85.2,125C85.6,125.5 85.8,126.1 85.9,127L85.9,128L88.3,128L88.3,127C88.3,125.9 88.1,125 87.7,124.3C87.3,123.6 86.8,123 86,122.6C85.3,122.2 84.4,122 83.3,122C82.2,122 81.2,122.2 80.5,122.6C79.7,123 79.2,123.5 78.8,124.2C78.4,124.9 78.2,125.8 78.2,126.9L78.2,128C78.2,129 78.4,129.8 78.8,130.5C79.2,131.2 79.7,131.7 80.3,132.1C80.9,132.5 81.6,132.9 82.6,133.3L82.8,133.4L83,133.4C83.7,133.7 84.3,134 84.7,134.3C85.1,134.6 85.5,134.9 85.8,135.3C86.1,135.7 86.2,136.2 86.2,136.8L86.2,138.3C86.2,139.2 86,139.9 85.5,140.3C85.1,140.7 84.4,141 83.5,141C82.6,141 81.9,140.8 81.5,140.3C81,139.8 80.8,139.2 80.8,138.3L80.8,137.3L78.4,137.3L78.4,138.3C78.4,139.4 78.6,140.3 79,141C79.4,141.7 80,142.3 80.7,142.7C81.5,143.1 82.4,143.3 83.5,143.3C84.6,143.3 85.5,143.1 86.3,142.7C87,142.3 87.6,141.8 88,141C88.4,140.3 88.6,139.4 88.6,138.3L88.6,137C88.6,136 88.4,135.2 88.1,134.5C87.4,133.9 86.9,133.4 86.4,133Z" style="fill:white;fill-rule:nonzero;"/>
                    <path d="M107.3,122.3L104.6,122.3L99,133.4L99,122.3L96.6,122.3L96.6,143.4L99,143.4L99,137.7L101.5,133.1L105.2,143.4L108,143.4L102.9,130.5L107.3,122.3Z" style="fill:white;fill-rule:nonzero;"/>
                    <path d="M123.6,117.7L121.7,115.9L118.1,119.6L119.6,121L123.6,117.7Z" style="fill:white;fill-rule:nonzero;"/>
                    <path d="M119.6,131.7L116.5,122.3L114,122.3L118.4,134.5L118.4,143.4L120.8,143.4L120.8,134.5L125,122.3L122.6,122.3L119.6,131.7Z" style="fill:white;fill-rule:nonzero;"/>
                    <path d="M148.4,139.7L145.2,122.3L142.7,122.3L146.9,143.4L149.8,143.4L154,122.3L151.5,122.3L148.4,139.7Z" style="fill:white;fill-rule:nonzero;"/>
                    <path d="M170.2,117.7L168.4,115.9L164.7,119.6L166.3,121L170.2,117.7Z" style="fill:white;fill-rule:nonzero;"/>
                    <path d="M166.2,131.7L163.1,122.3L160.7,122.3L165,134.5L165,143.4L167.5,143.4L167.5,134.5L171.7,122.3L169.2,122.3L166.2,131.7Z" style="fill:white;fill-rule:nonzero;"/>
                    <path d="M186.7,133.9C187.5,133.5 188.1,133 188.5,132.2C188.9,131.5 189.1,130.6 189.1,129.5L189.1,127C189.1,126 188.9,125.1 188.5,124.4C188.1,123.7 187.5,123.1 186.7,122.8C185.9,122.4 185,122.2 183.8,122.2L178.8,122.2L178.8,143.2L181.2,143.2L181.2,134.3L184.3,134.3L187,143.2L189.7,143.2L186.7,133.9ZM181.3,132.2L181.3,124.6L184.1,124.6C184.7,124.6 185.1,124.7 185.5,124.9C185.9,125.1 186.2,125.4 186.4,125.9C186.6,126.3 186.7,126.8 186.7,127.4L186.7,129.6C186.7,130.1 186.6,130.6 186.4,131C186.2,131.4 185.9,131.7 185.5,131.9C185.1,132.1 184.6,132.2 184.1,132.2L181.3,132.2Z" style="fill:white;fill-rule:nonzero;"/>
                    <path d="M205.7,122.7C204.9,122.3 204,122.1 202.9,122.1C201.8,122.1 200.9,122.3 200.1,122.7C199.3,123.1 198.7,123.7 198.3,124.5C197.9,125.3 197.7,126.3 197.7,127.4L197.7,138.3C197.7,139.4 197.9,140.4 198.3,141.2C198.7,142 199.3,142.6 200.1,143C200.9,143.4 201.8,143.6 202.9,143.6C204,143.6 204.9,143.4 205.7,143C206.5,142.6 207.1,142 207.5,141.2C207.9,140.4 208.1,139.5 208.1,138.3L208.1,127.4C208.1,126.3 207.9,125.3 207.5,124.5C207,123.7 206.4,123.1 205.7,122.7ZM205.6,138.4C205.6,139 205.5,139.5 205.3,139.9C205.1,140.3 204.8,140.6 204.3,140.9C203.9,141.1 203.4,141.2 202.8,141.2C202.2,141.2 201.7,141.1 201.3,140.9C200.9,140.7 200.6,140.4 200.3,139.9C200.1,139.5 200,139 200,138.4L200,127.3C200,126.7 200.1,126.2 200.3,125.8C200.5,125.4 200.8,125.1 201.3,124.8C201.7,124.6 202.2,124.5 202.8,124.5C203.4,124.5 203.9,124.6 204.3,124.8C204.7,125 205,125.3 205.3,125.8C205.5,126.2 205.6,126.7 205.6,127.3L205.6,138.4Z" style="fill:white;fill-rule:nonzero;"/>
                    <path d="M225.3,133.1C224.9,132.8 224.4,132.5 223.9,132.5C224.4,132.4 224.8,132.2 225.1,131.8C225.4,131.5 225.7,131.1 225.9,130.5C226.1,130 226.2,129.4 226.2,128.7L226.2,126.2C226.2,125.4 226,124.7 225.7,124.1C225.4,123.5 224.9,123.1 224.2,122.8C223.6,122.5 222.8,122.3 221.9,122.3L216.6,122.3L216.6,143.3L222.3,143.3C223.2,143.3 223.9,143.1 224.6,142.8C225.2,142.5 225.7,142 226,141.4C226.3,140.8 226.5,140.1 226.5,139.2L226.5,136.1C226.5,135.4 226.4,134.8 226.2,134.2C226,133.9 225.7,133.4 225.3,133.1ZM222,124.6C222.6,124.6 223,124.8 223.3,125.1C223.6,125.4 223.8,125.8 223.8,126.4L223.8,129C223.8,129.7 223.6,130.3 223.3,130.7C223,131.1 222.5,131.3 222,131.3L219,131.3L219,124.6L222,124.6ZM224.1,139.3C224.1,139.9 223.9,140.3 223.6,140.6C223.3,140.9 222.8,141.1 222.2,141.1L219,141.1L219,133.5L222,133.5C222.4,133.5 222.8,133.6 223.1,133.8C223.4,134 223.7,134.3 223.8,134.7C224,135.1 224.1,135.5 224.1,136.1L224.1,139.3Z" style="fill:white;fill-rule:nonzero;"/>
                    <path d="M242.1,122.7C241.4,122.3 240.5,122.1 239.5,122.1C238.5,122.1 237.6,122.3 236.9,122.7C236.2,123.1 235.6,123.7 235.2,124.5C234.8,125.3 234.6,126.3 234.6,127.4L234.6,138.1C234.6,139.2 234.8,140.2 235.2,141C235.6,141.8 236.1,142.4 236.9,142.8C237.6,143.2 238.5,143.4 239.5,143.4C240.5,143.4 241.4,143.2 242.1,142.8C242.8,142.4 243.4,141.8 243.8,141C244.2,140.2 244.4,139.2 244.4,138.1L244.4,137.3L242,137.3L242,138.1C242,138.7 241.9,139.3 241.7,139.8C241.5,140.3 241.2,140.6 240.9,140.8C240.5,141 240.1,141.2 239.6,141.2C239.1,141.2 238.6,141.1 238.3,140.8C237.9,140.6 237.7,140.2 237.5,139.8C237.3,139.3 237.2,138.8 237.2,138.2L237.2,127.5C237.2,126.9 237.3,126.3 237.5,125.8C237.7,125.3 238,125 238.3,124.8C238.7,124.6 239.1,124.4 239.6,124.4C240.1,124.4 240.6,124.5 240.9,124.8C241.3,125 241.5,125.4 241.7,125.8C241.9,126.3 242,126.8 242,127.4L242,128.2L244.4,128.2L244.4,127.4C244.4,126.3 244.2,125.3 243.8,124.5C243.3,123.8 242.8,123.2 242.1,122.7Z" style="fill:white;fill-rule:nonzero;"/>
                    <path d="M261.6,122.3L252.5,122.3L252.5,143.4L261.6,143.4L261.6,141.1L254.9,141.1L254.9,134.1L260.8,134.1L260.8,131.8L254.9,131.8L254.9,124.6L261.6,124.6L261.6,122.3Z" style="fill:white;fill-rule:nonzero;"/>
                    <path d="M289.6,122.9C288.9,122.5 288.1,122.4 287.2,122.4L281.6,122.4L281.6,143.4L284,143.4L284,135.2L287.3,135.2C288.2,135.2 289,135 289.7,134.7C290.4,134.3 290.9,133.8 291.2,133.2C291.6,132.5 291.7,131.7 291.7,130.8L291.7,127.1C291.7,126.1 291.5,125.3 291.2,124.6C290.8,123.8 290.3,123.2 289.6,122.9ZM289.2,130.6C289.2,131.1 289.1,131.5 289,131.8C288.9,132.1 288.6,132.4 288.3,132.6C288,132.8 287.7,132.9 287.3,132.9L284,132.9L284,124.6L287.3,124.6C287.7,124.6 288.1,124.7 288.3,124.9C288.6,125.1 288.8,125.4 289,125.7C289.2,126.1 289.2,126.5 289.2,127L289.2,130.6Z" style="fill:white;fill-rule:nonzero;"/>
                    <path d="M309.2,122.3L300.1,122.3L300.1,143.4L309.2,143.4L309.2,141.1L302.5,141.1L302.5,134.1L308.4,134.1L308.4,131.8L302.5,131.8L302.5,124.6L309.2,124.6L309.2,122.3Z" style="fill:white;fill-rule:nonzero;"/>
                    <path d="M325.1,133.9C325.9,133.5 326.5,133 326.9,132.2C327.3,131.5 327.5,130.6 327.5,129.5L327.5,127C327.5,126 327.3,125.1 326.9,124.4C326.5,123.7 325.9,123.1 325.1,122.8C324.3,122.4 323.4,122.2 322.2,122.2L317.2,122.2L317.2,143.2L319.6,143.2L319.6,134.3L322.7,134.3L325.4,143.2L328.1,143.2L325.1,133.9C325,133.9 325.1,133.9 325.1,133.9ZM319.7,132.2L319.7,124.6L322.5,124.6C323.1,124.6 323.5,124.7 323.9,124.9C324.3,125.1 324.6,125.4 324.8,125.9C325,126.3 325.1,126.8 325.1,127.4L325.1,129.6C325.1,130.1 325,130.6 324.8,131C324.6,131.4 324.3,131.7 323.9,131.9C323.5,132.1 323,132.2 322.5,132.2L319.7,132.2Z" style="fill:white;fill-rule:nonzero;"/>
                    <path d="M341,134.3L343.7,134.3L343.7,138.2C343.7,138.8 343.6,139.4 343.4,139.8C343.2,140.3 342.9,140.6 342.5,140.8C342.1,141 341.6,141.2 341.1,141.2C340.5,141.2 340,141.1 339.6,140.9C339.2,140.7 338.9,140.4 338.7,140C338.5,139.6 338.4,139.1 338.4,138.5L338.4,127.5C338.4,126.9 338.5,126.3 338.7,125.9C338.9,125.4 339.2,125.1 339.6,124.9C340,124.7 340.5,124.5 341,124.5C341.5,124.5 341.9,124.6 342.3,124.8C342.7,125 342.9,125.4 343.1,125.8C343.3,126.2 343.4,126.8 343.4,127.4L343.4,128.4L346,128.4L346,127.4C346,126.3 345.8,125.4 345.4,124.6C345,123.8 344.4,123.2 343.7,122.8C343,122.4 342.1,122.2 341,122.2C339.9,122.2 339,122.4 338.3,122.8C337.5,123.2 337,123.8 336.6,124.6C336.2,125.4 336,126.4 336,127.5L336,138.5C336,139.6 336.2,140.5 336.6,141.2C337,142 337.6,142.5 338.4,142.9C339.2,143.3 340.1,143.5 341.2,143.5C342.3,143.5 343.2,143.3 343.9,142.9C344.7,142.5 345.2,141.9 345.6,141C346,140.2 346.2,139.2 346.2,138.1L346.2,132L341,132L341,134.3Z" style="fill:white;fill-rule:nonzero;"/>
                    <path d="M362.4,122.7C361.6,122.3 360.7,122.1 359.6,122.1C358.5,122.1 357.6,122.3 356.8,122.7C356,123.1 355.4,123.7 355,124.5C354.6,125.3 354.4,126.3 354.4,127.4L354.4,138.3C354.4,139.4 354.6,140.4 355,141.2C355.4,142 356,142.6 356.8,143C357.6,143.4 358.5,143.6 359.6,143.6C360.7,143.6 361.6,143.4 362.4,143C363.2,142.6 363.8,142 364.2,141.2C364.6,140.4 364.8,139.5 364.8,138.3L364.8,127.4C364.8,126.3 364.6,125.3 364.2,124.5C363.8,123.7 363.2,123.1 362.4,122.7ZM362.4,138.4C362.4,139 362.3,139.5 362.1,139.9C361.9,140.3 361.6,140.6 361.1,140.9C360.7,141.1 360.2,141.2 359.6,141.2C359,141.2 358.5,141.1 358.1,140.9C357.7,140.7 357.4,140.4 357.1,139.9C356.9,139.5 356.8,139 356.8,138.4L356.8,127.3C356.8,126.7 356.9,126.2 357.1,125.8C357.3,125.4 357.6,125.1 358.1,124.8C358.5,124.6 359,124.5 359.6,124.5C360.2,124.5 360.7,124.6 361.1,124.8C361.5,125 361.8,125.3 362.1,125.8C362.3,126.2 362.4,126.7 362.4,127.3L362.4,138.4Z" style="fill:white;fill-rule:nonzero;"/>
                    <path d="M375.8,141.1L375.8,122.3L373.4,122.3L373.4,143.4L382.1,143.4L382.1,141.1L375.8,141.1Z" style="fill:white;fill-rule:nonzero;"/>
                </g>
            </g>
        </g>
    </g>
</svg>
